<?xml version="1.0" encoding="UTF-8" standalone="no"?>
<!DOCTYPE svg PUBLIC "-//W3C//DTD SVG 1.1//EN" "http://www.w3.org/Graphics/SVG/1.1/DTD/svg11.dtd">
<svg width="100%" height="100%" viewBox="0 0 2130 2177" version="1.1" xmlns="http://www.w3.org/2000/svg" xmlns:xlink="http://www.w3.org/1999/xlink" xml:space="preserve" xmlns:serif="http://www.serif.com/" style="fill-rule:evenodd;clip-rule:evenodd;stroke-linejoin:round;stroke-miterlimit:2;">
    <g transform="matrix(4.16667,0,0,4.16667,23.6583,178.692)">
        <path d="M0,-0.237C0,20.247 16.606,36.853 37.09,36.853C57.574,36.853 74.18,20.247 74.18,-0.237C74.18,-20.72 57.574,-37.326 37.09,-37.326C16.606,-37.326 0,-20.72 0,-0.237M37.09,-42.886C60.71,-42.886 79.858,-23.739 79.858,-0.118C79.858,23.501 60.71,42.649 37.09,42.649C13.47,42.649 -5.678,23.501 -5.678,-0.118C-5.678,-23.739 13.47,-42.886 37.09,-42.886" style="fill:rgb(0,113,206);fill-rule:nonzero;"/>
    </g>
    <g transform="matrix(4.16667,0,0,4.16667,2129,1496.34)">
        <path d="M0,-358.74L-358.74,-358.74L-284.178,-284.178L-76.193,-284.178L-76.193,-76.194L0,0L0,-358.74Z" style="fill:rgb(0,113,206);fill-rule:nonzero;"/>
    </g>
    <g transform="matrix(4.16667,0,0,4.16667,6.90542,1620.12)">
        <path d="M0,-22.614L0.018,-22.614L0.018,20.82L5.758,20.82L5.758,-22.614C5.87,-31.024 11.283,-37.81 20.351,-37.81L22.671,-37.81C31.738,-37.81 38.11,-31.024 38.222,-22.614L38.238,-22.614L38.236,20.82L82.303,20.82L82.303,15.162L43.806,15.162L43.806,-22.614C43.694,-34.131 34.949,-43.434 22.956,-43.434L19.892,-43.434C7.898,-43.434 0.111,-34.131 0,-22.614" style="fill:rgb(0,113,206);fill-rule:nonzero;"/>
    </g>
    <g transform="matrix(4.16667,0,0,4.16667,349.835,1384.42)">
        <path d="M0,-47.97L0,-54.675L-38.497,-31.872L-38.497,-35.291C-38.608,-46.808 -47.619,-56.113 -59.612,-56.113L-62.676,-56.113C-74.67,-56.113 -82.192,-46.808 -82.304,-35.291L-82.286,8.143L-76.545,8.143L-76.545,-35.291C-76.433,-43.702 -71.283,-50.489 -62.217,-50.489L-59.896,-50.489C-50.83,-50.489 -44.192,-43.702 -44.08,-35.291L-44.066,-35.291L-44.067,8.143L0,8.143L0,2.484L-38.497,2.484L-38.497,-25.166L0,-47.97Z" style="fill:rgb(0,113,206);fill-rule:nonzero;"/>
    </g>
    <g transform="matrix(-0.0118266,-4.16665,-4.16665,0.0118266,349.466,418.911)">
        <rect x="-0.009" y="0.008" width="5.637" height="5.636" style="fill:rgb(254,191,61);"/>
    </g>
    <g transform="matrix(4.16667,0,0,4.16667,304.58,701.434)">
        <path d="M0,-67.759L-0.016,-73.403L-71.555,-73.198L-71.546,-70.107L-71.539,-67.554L-71.53,-64.3L2.633,-33.989L-71.355,-3.253L-71.345,0.001L-71.338,2.553L-71.329,5.644L10.973,5.408L10.957,-0.235L-64.871,-0.018L10.868,-31.388L10.864,-32.972L10.858,-35.052L10.854,-36.637L-65.064,-67.573L0,-67.759Z" style="fill:rgb(0,113,206);fill-rule:nonzero;"/>
    </g>
    <g transform="matrix(4.16667,0,0,4.16667,1521.53,591.666)">
        <path d="M0,200.577L-196.7,200.577L-196.7,-4.219L-211.657,-4.219L-211.657,215.62L0,215.62L0,200.577ZM-138.384,-67.057L69.601,142.21L69.601,267.634L-263.039,267.634L-263.039,-67.057L-138.384,-67.057Z" style="fill:rgb(254,191,61);fill-rule:nonzero;"/>
    </g>
    <g transform="matrix(4.16667,0,0,4.16667,23.6583,940.85)">
        <path d="M0,-0.237C0,20.247 16.606,36.853 37.09,36.853C57.574,36.853 74.18,20.247 74.18,-0.237C74.18,-20.72 57.574,-37.326 37.09,-37.326C16.606,-37.326 0,-20.72 0,-0.237M37.09,-42.886C60.71,-42.886 79.858,-23.739 79.858,-0.118C79.858,23.501 60.71,42.649 37.09,42.649C13.47,42.649 -5.678,23.501 -5.678,-0.118C-5.678,-23.739 13.47,-42.886 37.09,-42.886" style="fill:rgb(0,113,206);fill-rule:nonzero;"/>
    </g>
    <g transform="matrix(4.16667,0,0,4.16667,-1602.25,255.563)">
        <rect x="772.035" y="365.982" width="9.876" height="70.617" style="fill:rgb(254,191,61);"/>
    </g>
    <g transform="matrix(4.16667,0,0,4.16667,665.897,1880.17)">
        <path d="M0,22.435C-4.379,31.99 -14.171,38.649 -25.557,38.649C-41.024,38.649 -53.563,26.367 -53.563,11.218C-53.563,-3.933 -41.024,-16.215 -25.557,-16.215C-15.17,-16.215 -6.11,-10.671 -1.276,-2.445L9.676,-2.445C4.121,-16.177 -9.559,-25.89 -25.557,-25.89C-46.48,-25.89 -63.441,-9.277 -63.441,11.218C-63.441,31.711 -46.48,48.325 -25.557,48.325C-8.626,48.325 5.709,37.445 10.564,22.435L0,22.435Z" style="fill:rgb(254,191,61);fill-rule:nonzero;"/>
    </g>
    <g transform="matrix(4.16667,0,0,4.16667,997.715,2074.72)">
        <path d="M0,-70.617L0,-60.922L-51.44,-60.922L-51.44,-37.806L-19.65,-37.806L-19.65,-28.175L-51.44,-28.175L-51.44,-9.789L0,-9.789L0,0L-61.232,0L-61.232,-70.617L0,-70.617Z" style="fill:rgb(254,191,61);fill-rule:nonzero;"/>
    </g>
    <g transform="matrix(4.16667,0,0,4.16667,-1602.25,274.826)">
        <rect x="614.166" y="394.142" width="9.825" height="9.674" style="fill:rgb(0,113,206);"/>
    </g>
    <g transform="matrix(4.16667,0,0,4.16667,-1602.25,255.488)">
        <rect x="386.084" y="365.991" width="9.876" height="70.617" style="fill:rgb(254,191,61);"/>
    </g>
    <g transform="matrix(4.16667,0,0,4.16667,-1602.25,1.5175)">
        <rect x="458.738" y="426.939" width="9.876" height="9.674" style="fill:rgb(0,113,206);"/>
    </g>
    <g transform="matrix(4.16667,0,0,4.16667,309.704,1938.78)">
        <path d="M0,-5.391L0,18.507L-39.434,-38.004L-51.487,-38.004L-51.487,32.613L-41.742,32.613L-41.742,-24.011L-2.308,32.613L9.745,32.613L9.745,-5.391L0,-5.391Z" style="fill:rgb(254,191,61);fill-rule:nonzero;"/>
    </g>
    <g transform="matrix(4.16667,0,0,4.16667,-1602.25,1.82167)">
        <rect x="752.674" y="426.901" width="9.719" height="9.677" style="fill:rgb(0,113,206);"/>
    </g>
    <g transform="matrix(4.16667,0,0,4.16667,1493.43,2074.81)">
        <path d="M0,-70.617L-41.801,-70.617L-41.801,-60.94L-16.044,-60.94L-16.044,0L-6.325,0L-6.325,-60.94L0,-60.94L0,-70.617Z" style="fill:rgb(254,191,61);fill-rule:nonzero;"/>
    </g>
    <g transform="matrix(4.16667,0,0,4.16667,-1602.25,1.51333)">
        <rect x="682.286" y="426.94" width="9.745" height="9.673" style="fill:rgb(0,113,206);"/>
    </g>
    <g transform="matrix(4.16667,0,0,4.16667,1240.61,1938.78)">
        <path d="M0,-5.391L0,18.507L-39.434,-38.004L-51.487,-38.004L-51.487,32.613L-41.742,32.613L-41.742,-24.011L-2.307,32.613L9.746,32.613L9.746,-5.391L0,-5.391Z" style="fill:rgb(254,191,61);fill-rule:nonzero;"/>
    </g>
    <g transform="matrix(-1.44594,3.90773,3.90773,1.44594,1938.02,1883.39)">
        <path d="M-23.834,-6.756L1.063,-6.756L4.704,-16.594L-20.197,-16.585L-23.834,-6.756Z" style="fill:rgb(254,191,61);fill-rule:nonzero;"/>
    </g>
    <g transform="matrix(4.16667,0,0,4.16667,1852.51,1938.02)">
        <path d="M0,-5L-10.06,22.981L-32.096,-37.808L-42.577,-37.808L-16.979,32.808L-3.14,32.808L10.483,-5L0,-5Z" style="fill:rgb(254,191,61);fill-rule:nonzero;"/>
    </g>
    <g transform="matrix(4.16667,0,0,4.16667,2022.34,2074.72)">
        <path d="M0,-70.617L-13.839,-70.617L-22.297,-47.25L-11.815,-47.25L-6.92,-60.79L15.116,0L25.598,0L0,-70.617Z" style="fill:rgb(254,191,61);fill-rule:nonzero;"/>
    </g>
    <g transform="matrix(4.16667,0,0,4.16667,2002.71,2034.57)">
        <path d="M0,-18.54L-13.94,-18.54L-24.24,9.64L-34.73,9.64L-21.7,-26.04L-20.92,-28.18L-3.54,-28.18L0,-18.54Z" style="fill:rgb(254,191,61);fill-rule:nonzero;"/>
    </g>
    <g transform="matrix(4.16667,0,0,4.16667,6.43458,2175.9)">
        <path d="M0,-11.842L2.503,-11.842L9.421,-1.914L16.341,-11.842L18.843,-11.842L18.843,0L17.24,0L17.24,-10.403L17.207,-10.403L9.994,0L8.849,0L1.636,-10.403L1.603,-10.403L1.603,0L0,0L0,-11.842Z" style="fill:rgb(0,113,206);fill-rule:nonzero;"/>
    </g>
    <g transform="matrix(4.16667,0,0,4.16667,163.524,2170.45)">
        <path d="M0,-9.226L-3.975,-2.504L3.975,-2.504L0,-9.226ZM-0.998,-10.534L0.998,-10.534L8.031,1.308L6.216,1.308L4.744,-1.195L-4.743,-1.195L-6.215,1.308L-8.031,1.308L-0.998,-10.534Z" style="fill:rgb(0,113,206);fill-rule:nonzero;"/>
    </g>
    <g transform="matrix(4.16667,0,0,4.16667,280.813,2151.5)">
        <path d="M0,-0.132C1.783,-0.132 2.535,-0.606 2.535,-1.849L2.535,-2.929C2.535,-4.254 1.963,-4.679 -0.393,-4.679L-7.688,-4.679L-7.688,-0.132L0,-0.132ZM-9.291,-5.987L0.18,-5.987C3.598,-5.987 4.138,-4.859 4.138,-2.634L4.138,-1.669C4.138,-0.001 3.189,0.457 1.963,0.571L1.963,0.604C3.598,0.899 3.991,1.749 3.991,2.829L3.991,5.855L2.486,5.855L2.486,3.254C2.486,1.406 1.587,1.177 0.131,1.177L-7.688,1.177L-7.688,5.855L-9.291,5.855L-9.291,-5.987Z" style="fill:rgb(0,113,206);fill-rule:nonzero;"/>
    </g>
    <g transform="matrix(4.16667,0,0,4.16667,347.736,2175.9)">
        <path d="M0,-11.842L1.603,-11.842L1.603,-6.821L3.615,-6.821L11.041,-11.842L13.658,-11.842L13.691,-11.809L5.201,-6.15L14.459,-0.033L14.427,0L11.613,0L3.484,-5.512L1.603,-5.512L1.603,0L0,0L0,-11.842Z" style="fill:rgb(0,113,206);fill-rule:nonzero;"/>
    </g>
    <g transform="matrix(4.16667,0,0,4.16667,452.962,2175.9)">
        <path d="M0,-11.842L11.63,-11.842L11.63,-10.534L1.603,-10.534L1.603,-6.755L11.237,-6.755L11.237,-5.447L1.603,-5.447L1.603,-1.308L11.695,-1.308L11.695,0L0,0L0,-11.842Z" style="fill:rgb(0,113,206);fill-rule:nonzero;"/>
    </g>
    <g transform="matrix(4.16667,0,0,4.16667,569.365,2170.45)">
        <path d="M0,-9.226L-5.987,-9.226L-5.987,-10.534L7.589,-10.534L7.589,-9.226L1.603,-9.226L1.603,1.308L0,1.308L0,-9.226Z" style="fill:rgb(0,113,206);fill-rule:nonzero;"/>
    </g>
    <g transform="matrix(4.16667,0,0,4.16667,-1602.25,702.801)">
        <rect x="539.784" y="341.701" width="1.603" height="11.842" style="fill:rgb(0,113,206);"/>
    </g>
    <g transform="matrix(4.16667,0,0,4.16667,704.372,2175.9)">
        <path d="M0,-11.842L2.388,-11.842L13.233,-1.439L13.233,-11.842L14.836,-11.842L14.836,0L12.448,0L1.603,-10.403L1.603,0L0,0L0,-11.842Z" style="fill:rgb(0,113,206);fill-rule:nonzero;"/>
    </g>
    <g transform="matrix(4.16667,0,0,4.16667,877.341,2144.2)">
        <path d="M0,3.37C0,6.592 -1.047,7.737 -4.008,7.737L-10.615,7.737C-13.821,7.737 -14.836,6.298 -14.836,3.305L-14.836,0.066C-14.836,-2.927 -13.821,-4.367 -10.615,-4.367L-4.563,-4.367C-2.437,-4.367 -0.164,-3.843 -0.164,-1.112L-0.164,-0.686L-1.668,-0.686C-1.668,-2.895 -2.339,-3.058 -6.297,-3.058L-10.452,-3.058C-11.99,-3.058 -13.233,-2.6 -13.233,-0.539L-13.233,3.91C-13.233,5.971 -11.99,6.429 -10.452,6.429L-4.187,6.429C-2.584,6.429 -1.603,5.873 -1.603,4.237L-1.603,3.043L-7.671,3.043L-7.671,1.734L0,1.734L0,3.37Z" style="fill:rgb(0,113,206);fill-rule:nonzero;"/>
    </g>
    <g transform="matrix(4.16667,0,0,4.16667,1020.87,2147.41)">
        <path d="M0,1.832L-6.788,-5.005L-4.629,-5.005L0.801,0.491L6.232,-5.005L8.391,-5.005L1.603,1.832L1.603,6.837L0,6.837L0,1.832Z" style="fill:rgb(0,113,206);fill-rule:nonzero;"/>
    </g>
    <g transform="matrix(4.16667,0,0,4.16667,1191.93,2170.45)">
        <path d="M0,-9.226L-5.987,-9.226L-5.987,-10.534L7.589,-10.534L7.589,-9.226L1.603,-9.226L1.603,1.308L0,1.308L0,-9.226Z" style="fill:rgb(0,113,206);fill-rule:nonzero;"/>
    </g>
    <g transform="matrix(4.16667,0,0,4.16667,1269.21,2175.9)">
        <path d="M0,-11.842L11.63,-11.842L11.63,-10.534L1.603,-10.534L1.603,-6.755L11.237,-6.755L11.237,-5.447L1.603,-5.447L1.603,-1.308L11.695,-1.308L11.695,0L0,0L0,-11.842Z" style="fill:rgb(0,113,206);fill-rule:nonzero;"/>
    </g>
    <g transform="matrix(4.16667,0,0,4.16667,1364.76,2157.98)">
        <path d="M0,-3.24C0,-6.233 1.014,-7.672 4.22,-7.672L10.354,-7.672C13.265,-7.672 14.067,-6.315 14.067,-4.728L14.067,-3.714L12.66,-3.714L12.66,-4.254C12.66,-6.266 11.417,-6.364 9.945,-6.364L4.384,-6.364C2.846,-6.364 1.603,-5.906 1.603,-3.845L1.603,0.604C1.603,2.665 2.846,3.123 4.384,3.123L9.994,3.123C12.153,3.123 12.775,2.665 12.775,1.062L12.775,0.326L14.28,0.326L14.28,1.127C14.28,3.27 13.593,4.432 10.272,4.432L4.22,4.432C1.014,4.432 0,2.992 0,-0.001L0,-3.24Z" style="fill:rgb(0,113,206);fill-rule:nonzero;"/>
    </g>
    <g transform="matrix(4.16667,0,0,4.16667,1472.57,2175.9)">
        <path d="M0,-11.842L2.388,-11.842L13.233,-1.439L13.233,-11.842L14.836,-11.842L14.836,0L12.448,0L1.603,-10.403L1.603,0L0,0L0,-11.842Z" style="fill:rgb(0,113,206);fill-rule:nonzero;"/>
    </g>
    <g transform="matrix(4.16667,0,0,4.16667,1640.63,2160.5)">
        <path d="M0,-4.45C0,-6.511 -1.243,-6.969 -2.781,-6.969L-9.274,-6.969C-10.812,-6.969 -12.055,-6.511 -12.055,-4.45L-12.055,-0.001C-12.055,2.06 -10.812,2.518 -9.274,2.518L-2.781,2.518C-1.243,2.518 0,2.06 0,-0.001L0,-4.45ZM-13.658,-3.845C-13.658,-6.838 -12.644,-8.277 -9.438,-8.277L-2.617,-8.277C0.589,-8.277 1.603,-6.838 1.603,-3.845L1.603,-0.606C1.603,2.387 0.589,3.827 -2.617,3.827L-9.438,3.827C-12.644,3.827 -13.658,2.387 -13.658,-0.606L-13.658,-3.845Z" style="fill:rgb(0,113,206);fill-rule:nonzero;"/>
    </g>
    <g transform="matrix(4.16667,0,0,4.16667,1697.06,2175.9)">
        <path d="M0,-11.842L1.603,-11.842L1.603,-1.308L10.795,-1.308L10.795,0L0,0L0,-11.842Z" style="fill:rgb(0,113,206);fill-rule:nonzero;"/>
    </g>
    <g transform="matrix(4.16667,0,0,4.16667,1842.77,2160.5)">
        <path d="M0,-4.45C0,-6.511 -1.243,-6.969 -2.781,-6.969L-9.274,-6.969C-10.812,-6.969 -12.055,-6.511 -12.055,-4.45L-12.055,-0.001C-12.055,2.06 -10.812,2.518 -9.274,2.518L-2.781,2.518C-1.243,2.518 0,2.06 0,-0.001L0,-4.45ZM-13.658,-3.845C-13.658,-6.838 -12.644,-8.277 -9.438,-8.277L-2.617,-8.277C0.589,-8.277 1.603,-6.838 1.603,-3.845L1.603,-0.606C1.603,2.387 0.589,3.827 -2.617,3.827L-9.438,3.827C-12.644,3.827 -13.658,2.387 -13.658,-0.606L-13.658,-3.845Z" style="fill:rgb(0,113,206);fill-rule:nonzero;"/>
    </g>
    <g transform="matrix(4.16667,0,0,4.16667,1959.72,2144.2)">
        <path d="M0,3.37C0,6.592 -1.047,7.737 -4.008,7.737L-10.615,7.737C-13.822,7.737 -14.836,6.298 -14.836,3.305L-14.836,0.066C-14.836,-2.927 -13.822,-4.367 -10.615,-4.367L-4.563,-4.367C-2.437,-4.367 -0.164,-3.843 -0.164,-1.112L-0.164,-0.686L-1.668,-0.686C-1.668,-2.895 -2.339,-3.058 -6.297,-3.058L-10.452,-3.058C-11.99,-3.058 -13.233,-2.6 -13.233,-0.539L-13.233,3.91C-13.233,5.971 -11.99,6.429 -10.452,6.429L-4.187,6.429C-2.584,6.429 -1.603,5.873 -1.603,4.237L-1.603,3.043L-7.671,3.043L-7.671,1.734L0,1.734L0,3.37Z" style="fill:rgb(0,113,206);fill-rule:nonzero;"/>
    </g>
    <g transform="matrix(4.16667,0,0,4.16667,-1602.25,686.922)">
        <path d="M866.861,345.512L868.464,345.512L868.464,357.354L866.861,357.354L866.861,345.512ZM868.709,341.701L870.394,341.701L867.384,344.727L866.288,344.727L868.709,341.701Z" style="fill:rgb(0,113,206);fill-rule:nonzero;"/>
    </g>
    <g transform="matrix(4.16667,0,0,4.16667,2095.54,2170.45)">
        <path d="M0,-9.226L-3.975,-2.504L3.975,-2.504L0,-9.226ZM-0.998,-10.534L0.998,-10.534L8.031,1.308L6.215,1.308L4.743,-1.195L-4.744,-1.195L-6.216,1.308L-8.031,1.308L-0.998,-10.534Z" style="fill:rgb(0,113,206);fill-rule:nonzero;"/>
    </g>
</svg>
